<?xml version="1.0" encoding="UTF-8"?>
<svg id="Layer_1" data-name="Layer 1" xmlns="http://www.w3.org/2000/svg" viewBox="0 0 384 384">
  <defs>
    <style>
      path {
        fill: #fff;
      }

      .cls-1{
        fill: none;
      }
    </style>
  </defs>
  <path class="cls-1" d="M189.38,0c-29.84,20.59-46.71,57.93-34.42,93.74l3.04-13.81c3.04-12.05,10.76-26.43,19.02-35.69,14.34-16.07,21.12-12.06,33.3,3.41,7.09,9,13.26,20.7,16.12,31.85.45,1.77,2.26,14.28,2.99,14.27,12.78-35.55-4.58-73.14-34.06-93.76h188.63v189c-1.3-4.94-24.62-26.34-27.33-26.11-10.35,13.48-23.55,20.93-38.53,28.03-.77.37-1.95-.01-1.51,1.45.19.63,9.89,4.11,12,5.24,10.97,5.9,19.51,14,28.16,22.78,3.31.64,25.54-20.43,27.21-25.39v189h-188.63c29.74-20.61,46.75-57.97,34.42-93.74l-3.04,13.81c-3.38,13.38-14.51,33.44-25.39,42.06-7.9,6.26-12.43,4.97-19.48-1.5-10.48-9.62-20.04-26.33-23.58-40.13-.45-1.77-2.26-14.28-2.99-14.27-12.82,35.57,4.58,73.12,34.06,93.76H0V0h189.38ZM130.24,84.75c-1.13-12.41-1.44-24.51,1.12-36.76.54-2.6,3.99-12.18,3.05-13.53-.39-.56-10.93-4.85-12.57-5.42-9.04-3.15-23.5-9.1-29.42.93-2.47,4.18-9.37,32.3-7.08,34.52,16.6,1.87,32.02,9.98,44.9,20.26ZM253.76,84.75c13.49-10.48,28.43-17.75,45.33-20.95,1.67-2.34-2.66-21.7-3.79-25.55-4.35-14.76-8.14-15.82-22.7-12.25-8.08,1.99-15.66,5.42-23.33,8.53,5.74,16.01,7.86,33.42,4.49,50.22ZM193.11,147c4.5-9.06,9.21-17.66,11.77-27.59,5.44-21.06,2.08-41.99-12.22-58.62-3.03-.63-11.44,17.14-12.48,20.38-6.16,19.2-1.42,48.35,10.81,64.6.64.85.79,1.53,2.12,1.24ZM125.75,110.99c-21.23-26.25-56.18-31.71-87.4-21.94-16.01,5.01-15.12,9.89-11.03,24.95,7.04,25.9,23.15,48.09,48.84,57.56,3.75,1.38,8.29,3.29,12.16,2.82-14.09-10.5-25.43-25.61-31.03-42.41-2.9-8.72-6.58-18.96,3.88-23.8,2.79-1.29,7.45-2.3,10.55-2.93,18.37-3.72,36.92-1.73,54.03,5.76ZM295.67,174.74c26.75-4.44,46.68-22.88,57.02-47.49,2.38-5.67,7.78-21.3,7.2-26.91-.87-8.46-10.08-10.57-16.9-12.38-31.44-8.38-62.82-2.12-84.74,22.67l11.81-3.92c14.09-4.01,30.67-4.61,44.95-1.2,17.68,4.22,17.63,10.68,12.12,26.88-5.85,17.18-17.24,31.42-31.45,42.36ZM153.45,170.25c.77-.74-4.08-8.36-4.92-9.68-15.51-24.34-40.21-39.83-69.93-34.56,6.33,20.54,23.37,34.74,43.78,40.51,10.1,2.85,20.6,3.48,31.07,3.73ZM306.15,126.01c-32.65-6.53-61.73,14.88-74.85,43.49,31.56,2.41,64.41-11.92,74.85-43.49ZM68.12,191.26c-10.42-3.15-21.03-9.73-29.2-16.87-3.9-3.41-7.09-8.12-11.46-10.78-3.25.32-19.9,16.06-22.59,19.39-5.32,6.58-5.83,10.92-.38,17.65,6.25,7.72,15.51,14.85,23.6,20.54,7.45-9.39,16.89-16.96,27.3-22.82,3.72-2.1,8.3-3.51,11.79-5.44.86-.47,1.27.04.96-1.67ZM189.18,177.18c-18.04,3.08-14.79,33.26,6.39,29.64,18.04-3.08,14.79-33.26-6.39-29.64ZM89.07,209.26c-26.75,4.44-46.68,22.88-57.02,47.49-2.38,5.67-7.78,21.3-7.2,26.91.86,8.35,10.13,10.58,16.9,12.38,31.4,8.35,62.89,2.15,84.74-22.67l-15.39,4.82c-12.85,3.22-28.45,3.38-41.36.3-17.76-4.23-17.57-10.66-12.12-26.88,4.88-14.54,14.12-27.34,25.45-37.5,1.82-1.63,4.44-2.98,6-4.86ZM258.99,273.01c21.28,26.23,56.16,31.72,87.4,21.94,16.01-5.01,15.09-9.88,11.03-24.94-6.98-25.88-23.2-48.11-48.84-57.56-3.75-1.38-8.29-3.29-12.16-2.82,13.32,9.93,23.88,23.55,29.75,39.19,6.61,17.63,8.14,25.49-12.51,29.84-18.56,3.91-37.35,1.95-54.67-5.64ZM306.16,258c-6.35-20.72-23.71-35.07-44.35-40.69-9.92-2.7-20.25-3.29-30.51-3.55-.77.74,4.08,8.36,4.92,9.68,15.46,24.26,40.3,39.82,69.93,34.56ZM153.45,214.5c-31.49-2.41-64.43,11.98-74.85,43.49,32.64,6.5,61.73-14.9,74.85-43.49ZM191.64,237c-3.69,7.94-8.3,15.55-10.87,23.99-6.68,21.88-3.82,44.7,11.32,62.22,3.03.63,11.44-17.14,12.48-20.38,6.16-19.2,1.42-48.35-10.81-64.6-.64-.85-.79-1.53-2.12-1.24ZM135.48,349.47c-5.74-16.01-7.86-33.42-4.49-50.22-13.46,10.45-28.46,17.83-45.33,20.95-1.74,2.44,2.65,21.66,3.79,25.55,4.35,14.76,8.14,15.83,22.7,12.25,8.06-1.98,15.72-5.32,23.33-8.53ZM299.41,319.51c-16.6-1.87-32.02-9.98-44.9-20.26.5,8.53,1.36,17.29.73,25.87-.61,8.33-3.73,16.16-5.14,24.29,7.48,3.51,15.16,6.7,23.24,8.59,6.93,1.62,14.14,4.09,18.74-3.47,2.54-4.18,9.67-32.76,7.32-35.02Z"/>
  <path d="M195.37,0c29.48,20.62,46.84,58.21,34.06,93.76-.73.02-2.53-12.5-2.99-14.27-2.86-11.15-9.03-22.84-16.12-31.85-12.18-15.47-18.96-19.48-33.3-3.41-8.26,9.26-15.98,23.65-19.02,35.69l-3.04,13.81c-12.29-35.81,4.59-73.16,34.42-93.74h5.99Z"/>
  <path d="M384,189v6c-1.67,4.96-23.91,26.03-27.21,25.39-8.65-8.78-17.2-16.88-28.16-22.78-2.11-1.13-11.81-4.61-12-5.24-.45-1.46.73-1.09,1.51-1.45,14.99-7.1,28.18-14.55,38.53-28.03,2.71-.23,26.03,21.17,27.33,26.11Z"/>
  <path d="M295.67,174.74c14.21-10.94,25.6-25.17,31.45-42.36,5.52-16.2,5.56-22.66-12.12-26.88-14.28-3.41-30.85-2.8-44.95,1.2l-11.81,3.92c21.93-24.79,53.3-31.04,84.74-22.67,6.82,1.82,16.02,3.92,16.9,12.38.58,5.61-4.82,21.24-7.2,26.91-10.34,24.61-30.27,43.05-57.02,47.49Z"/>
  <path d="M89.07,209.26c-1.55,1.87-4.18,3.23-6,4.86-11.33,10.15-20.57,22.96-25.45,37.5-5.45,16.22-5.64,22.65,12.12,26.88,12.91,3.08,28.5,2.92,41.36-.3l15.39-4.82c-21.85,24.82-53.34,31.02-84.74,22.67-6.76-1.8-16.03-4.03-16.9-12.38-.58-5.61,4.82-21.24,7.2-26.91,10.34-24.6,30.27-43.04,57.02-47.49Z"/>
  <path d="M125.75,110.99c-17.11-7.49-35.67-9.48-54.03-5.76-3.09.63-7.76,1.64-10.55,2.93-10.46,4.84-6.78,15.08-3.88,23.8,5.6,16.8,16.94,31.91,31.03,42.41-3.87.47-8.4-1.43-12.16-2.82-25.69-9.47-41.81-31.66-48.84-57.56-4.09-15.06-4.98-19.94,11.03-24.95,31.22-9.77,66.17-4.31,87.4,21.94Z"/>
  <path d="M258.99,273.01c17.32,7.59,36.11,9.55,54.67,5.64,20.65-4.35,19.12-12.21,12.51-29.84-5.87-15.64-16.43-29.27-29.75-39.19,3.87-.47,8.4,1.43,12.16,2.82,25.64,9.45,41.86,31.68,48.84,57.56,4.07,15.07,4.99,19.93-11.03,24.94-31.25,9.78-66.12,4.29-87.4-21.94Z"/>
  <path d="M130.24,84.75c-12.88-10.28-28.3-18.39-44.9-20.26-2.29-2.21,4.61-30.33,7.08-34.52,5.92-10.03,20.38-4.08,29.42-.93,1.64.57,12.18,4.86,12.57,5.42.94,1.35-2.51,10.93-3.05,13.53-2.56,12.25-2.25,24.35-1.12,36.76Z"/>
  <path d="M253.76,84.75c3.38-16.8,1.25-34.21-4.49-50.22,7.66-3.11,15.24-6.54,23.33-8.53,14.56-3.58,18.35-2.51,22.7,12.25,1.13,3.85,5.46,23.21,3.79,25.55-16.89,3.2-31.84,10.47-45.33,20.95Z"/>
  <path d="M135.48,349.47c-7.6,3.2-15.27,6.54-23.33,8.53-14.56,3.58-18.35,2.51-22.7-12.25-1.15-3.89-5.54-23.11-3.79-25.55,16.87-3.12,31.87-10.5,45.33-20.95-3.37,16.8-1.25,34.21,4.49,50.22Z"/>
  <path d="M299.41,319.51c2.34,2.26-4.78,30.84-7.32,35.02-4.6,7.56-11.81,5.08-18.74,3.47-8.08-1.89-15.77-5.07-23.24-8.59,1.41-8.13,4.53-15.96,5.14-24.29.63-8.57-.23-17.34-.73-25.87,12.88,10.28,28.3,18.39,44.9,20.26Z"/>
  <path d="M68.12,191.26c.31,1.71-.1,1.19-.96,1.67-3.48,1.92-8.06,3.34-11.79,5.44-10.41,5.86-19.86,13.44-27.3,22.82-8.09-5.69-17.35-12.82-23.6-20.54-5.45-6.73-4.94-11.07.38-17.65,2.69-3.33,19.35-19.07,22.59-19.39,4.37,2.66,7.56,7.37,11.46,10.78,8.18,7.15,18.79,13.73,29.2,16.87Z"/>
  <path d="M153.45,170.25c-10.47-.25-20.98-.88-31.07-3.73-20.41-5.76-37.45-19.97-43.78-40.51,29.72-5.27,54.42,10.22,69.93,34.56.84,1.32,5.7,8.94,4.92,9.68Z"/>
  <path d="M306.16,258c-29.63,5.27-54.47-10.3-69.93-34.56-.84-1.32-5.7-8.94-4.92-9.68,10.26.26,20.59.85,30.51,3.55,20.64,5.62,37.99,19.97,44.35,40.69Z"/>
  <path d="M193.11,147c-1.33.29-1.48-.39-2.12-1.24-12.22-16.25-16.96-45.4-10.81-64.6,1.04-3.24,9.45-21,12.48-20.38,14.31,16.64,17.66,37.57,12.22,58.62-2.56,9.92-7.28,18.52-11.77,27.59Z"/>
  <path d="M306.15,126.01c-10.44,31.56-43.3,45.9-74.85,43.49,13.13-28.61,42.2-50.02,74.85-43.49Z"/>
  <path d="M153.45,214.5c-13.12,28.59-42.22,49.98-74.85,43.49,10.42-31.51,43.36-45.9,74.85-43.49Z"/>
  <path d="M189.18,177.18c21.17-3.62,24.43,26.56,6.39,29.64-21.17,3.62-24.43-26.56-6.39-29.64Z"/>
  <g>
    <path d="M189.38,384c-29.48-20.64-46.87-58.19-34.06-93.76.73-.02,2.53,12.5,2.99,14.27,3.53,13.79,13.09,30.5,23.58,40.13,7.05,6.47,11.58,7.76,19.48,1.5,10.87-8.63,22.01-28.68,25.39-42.06l3.04-13.81c12.33,35.78-4.69,73.14-34.42,93.74h-5.99Z"/>
    <path d="M191.64,237c1.33-.29,1.48.39,2.12,1.24,12.22,16.25,16.96,45.4,10.81,64.6-1.04,3.24-9.45,21-12.48,20.38-15.14-17.52-18-40.34-11.32-62.22,2.58-8.44,7.18-16.05,10.87-23.99Z"/>
  </g>
</svg>